<?xml version="1.0" encoding="UTF-8" standalone="no"?>
<!DOCTYPE svg PUBLIC "-//W3C//DTD SVG 1.1//EN" "http://www.w3.org/Graphics/SVG/1.1/DTD/svg11.dtd">
<svg width="100%" height="100%" viewBox="0 0 1024 1024" version="1.1" xmlns="http://www.w3.org/2000/svg" xmlns:xlink="http://www.w3.org/1999/xlink" xml:space="preserve" xmlns:serif="http://www.serif.com/" style="fill-rule:evenodd;clip-rule:evenodd;stroke-linejoin:round;stroke-miterlimit:2;">
    <rect id="Artboard1" x="0" y="0" width="1024" height="1024" style="fill:none;"/>
    <g id="Artboard11" serif:id="Artboard1">
        <g transform="matrix(1,0,0,1.3252,-39.15,-215.786)">
            <path d="M927.726,541.264C926.878,555.219 922.052,573.329 911.114,588.848C902.218,601.47 889.179,613.219 866.09,614.607C822.008,617.786 768.463,615.873 711.175,613.016C631.093,609.023 544.724,602.854 466.467,602.301C429.176,602.038 394.027,603.14 362.109,606.198C322.729,610.004 289.106,616.84 260.271,625.307C184.321,647.607 143.916,678.834 124.789,679.136C143.441,680.979 188.914,655.395 267.029,641.909C295.115,637.061 327.263,633.948 364.228,634.333C433.625,634.745 517.409,647.12 601.478,659.022C657.138,666.902 712.5,674.616 763.543,679.635C802.481,683.464 838.887,685.251 871.019,684.902C920.272,684.01 956.062,666.874 981.34,643.335C1019.5,607.802 1029.4,554.603 1026.66,525.358C1024.61,508.001 1014.57,494.091 996.762,483.937C985.106,477.289 969.235,471.908 949.616,469.331C946.582,468.708 942.265,468.484 939.881,468.299C943.223,468.564 946.47,468.907 949.616,469.331C952.265,469.862 953.94,470.699 952.512,472.069C938.21,485.789 914.84,443.887 881.419,442.001C858.779,440.794 818.147,439.856 774.75,439.912C722.242,439.979 665.883,441.142 633.249,442.427C621.636,432.177 612.314,424.62 600.025,417.73C586.347,410.06 569.504,402.83 541.595,393.987C515.759,385.898 485.969,382.224 454.335,382.124C414.3,381.998 371.894,386.585 333.705,390.45C309.592,393.008 287.055,402.546 264.97,415.354C238.154,430.907 211.882,450.43 181.551,462.173C168.657,467.166 155.2,470.72 140.638,471.952C155.649,472.367 170,470.266 184.071,466.672C238.606,452.743 285.944,414.351 335.876,414.549C372.532,414.482 413.291,413.997 451.031,417.867C475.083,420.333 497.423,424.985 516.003,433.091C536.413,441.908 548.643,448.51 558.286,455.356C569.838,463.556 576.726,472.554 589.077,486.419C596.064,493.406 607.109,497.399 618.703,497.13C640.619,497.422 692.773,500.365 745.721,503.426C795.603,506.309 845.971,509.412 871.601,512.172C870.93,512.103 869.757,512.178 869.757,512.178C869.757,512.178 872.281,514.181 873.51,515.143C877.166,518.004 880.482,520.941 883.796,523.517C890.479,528.71 897.648,532.719 904.848,535.708C912.034,538.692 919.703,540.399 927.726,541.264ZM931.789,541.546C933.608,544.091 935.714,545.382 937.389,543.222C938.392,541.93 935.103,541.703 931.789,541.546Z" style="fill:rgb(252,127,127);"/>
        </g>
        <g transform="matrix(1,0,0,1.3252,11.1165,-185.504)">
            <path d="M857.453,656.3C857.648,689.444 836.753,720.258 803.82,730.879C763.052,744.028 719.176,721.285 705.9,680.124C703.349,672.213 702.112,664.193 702.081,656.3L857.453,656.3Z" style="fill:rgb(252,127,127);"/>
        </g>
        <g transform="matrix(1.22826,0,0,1.3252,-61.4998,-84.9696)">
            <path d="M78.869,517.057C88.421,493.847 123.112,474.757 171.618,461.339C193.721,455.224 218.428,450.849 245.179,447.478C263.053,445.225 281.713,443.882 300.951,442.553C319.221,441.291 337.881,439.944 357.026,439.696C384.994,439.334 413.31,440.248 442.26,444.198C470.825,448.095 499.008,453.695 527.323,463.34C501.9,446.868 475.745,433.793 448.126,423.701C428.816,416.646 409.371,411.443 389.654,407.483C369.21,403.376 348.877,400.822 328.733,399.978C314.828,399.396 301.072,399.703 287.674,400.903C266.504,402.8 246.215,406.662 227.179,411.654C213.492,415.243 200.596,419.497 188.401,424.296C173.323,430.23 159.583,436.629 147.177,443.74C107.047,466.742 81.954,493.026 78.869,517.057Z" style="fill:rgb(252,127,127);"/>
        </g>
    </g>
</svg>
