<?xml version="1.0" encoding="UTF-8" standalone="no"?><!DOCTYPE svg PUBLIC "-//W3C//DTD SVG 1.1//EN" "http://www.w3.org/Graphics/SVG/1.1/DTD/svg11.dtd"><svg width="100%" height="100%" viewBox="0 0 16 16" version="1.1" xmlns="http://www.w3.org/2000/svg" xmlns:xlink="http://www.w3.org/1999/xlink" xml:space="preserve" xmlns:serif="http://www.serif.com/" style="fill-rule:evenodd;clip-rule:evenodd;stroke-linejoin:round;stroke-miterlimit:2;"><path d="M3,2c-0.53,0 -1.039,0.211 -1.414,0.586c-0.375,0.375 -0.586,0.884 -0.586,1.414l-0,8c0,0.53 0.211,1.039 0.586,1.414c0.375,0.375 0.884,0.586 1.414,0.586l10,0c1.105,0 2,-0.895 2,-2l0,-8c0,-1.105 -0.895,-2 -2,-2l-10,0Zm0,1l10,0c0.552,0 1,0.448 1,1l0,8c-0,0.552 -0.448,1 -1,1l-10,0c-0.552,-0 -1,-0.448 -1,-1l0,-8c0,-0.552 0.448,-1 1,-1Z" style="fill:#fc7f7f;fill-rule:nonzero;"/><clipPath id="_clip1"><path d="M3,2c-0.53,0 -1.039,0.211 -1.414,0.586c-0.375,0.375 -0.586,0.884 -0.586,1.414l-0,8c0,0.53 0.211,1.039 0.586,1.414c0.375,0.375 0.884,0.586 1.414,0.586l10,0c1.105,0 2,-0.895 2,-2l0,-8c0,-1.105 -0.895,-2 -2,-2l-10,0Zm0,1l10,0c0.552,0 1,0.448 1,1l0,8c-0,0.552 -0.448,1 -1,1l-10,0c-0.552,-0 -1,-0.448 -1,-1l0,-8c0,-0.552 0.448,-1 1,-1Z" clip-rule="nonzero"/></clipPath><g clip-path="url(#_clip1)"><rect x="8" y="0" width="8" height="16" style="fill:#8da5f3;"/></g><path d="M8,3.825c-2.29,-0 -4.175,1.885 -4.175,4.175c-0,2.29 1.885,4.175 4.175,4.175c2.29,0 4.175,-1.885 4.175,-4.175c0,-2.29 -1.885,-4.175 -4.175,-4.175Zm-1.032,1.379c-0.496,0.917 -0.757,1.851 -0.757,2.792c-0.382,-0.067 -0.776,-0.162 -1.179,-0.281c0.11,-1.138 0.864,-2.116 1.936,-2.511l-0,0Zm2.065,0.002c1.067,0.395 1.818,1.367 1.932,2.498c-0.389,0.104 -0.78,0.196 -1.177,0.268c-0.005,-0.932 -0.264,-1.857 -0.755,-2.766l0,0Zm-1.033,0.005c0.604,0.95 0.895,1.874 0.895,2.789c-0,0.032 -0.004,0.064 -0.005,0.097c-0.575,0.057 -1.167,0.066 -1.78,0.016c-0.001,-0.038 -0.005,-0.075 -0.005,-0.113c0,-0.915 0.291,-1.839 0.895,-2.789l0,0Zm2.91,3.434c-0.22,0.989 -0.928,1.8 -1.878,2.151c0.341,-0.63 0.568,-1.269 0.678,-1.912c0.407,-0.065 0.809,-0.142 1.2,-0.239l0,0Zm-5.813,0.02c0.408,0.108 0.808,0.199 1.199,0.258c0.112,0.629 0.338,1.254 0.671,1.871c-0.941,-0.349 -1.645,-1.151 -1.87,-2.129l-0,0Zm3.679,0.331c-0.135,0.59 -0.39,1.186 -0.776,1.793c-0.381,-0.599 -0.635,-1.187 -0.771,-1.77c0.531,0.033 1.045,0.018 1.547,-0.023l-0,0Z" style="fill:#fc7f7f;fill-rule:nonzero;"/><path d="M8,3.825l0,1.386c0.604,0.95 0.895,1.874 0.895,2.789c-0,0.032 -0.004,0.064 -0.005,0.097c-0.292,0.029 -0.589,0.046 -0.89,0.049l-0,0.89c0.262,-0.005 0.521,-0.019 0.776,-0.04c-0.135,0.59 -0.39,1.186 -0.776,1.793l-0,1.386c2.29,0 4.175,-1.884 4.175,-4.175c0,-2.29 -1.885,-4.175 -4.175,-4.175l0,-0Zm1.033,1.381c1.067,0.395 1.818,1.367 1.932,2.498c-0.389,0.104 -0.78,0.196 -1.177,0.268c-0.005,-0.932 -0.264,-1.857 -0.755,-2.766l0,0Zm1.877,3.439c-0.22,0.989 -0.928,1.8 -1.878,2.151c0.341,-0.63 0.568,-1.269 0.678,-1.912c0.407,-0.065 0.809,-0.142 1.2,-0.239l0,0Z" style="fill:#8da5f3;fill-rule:nonzero;"/></svg>